<?xml version="1.0" encoding="UTF-8"?>
<svg width="135px" height="100px" viewBox="0 0 135 100" version="1.1" xmlns="http://www.w3.org/2000/svg" xmlns:xlink="http://www.w3.org/1999/xlink">
    <!-- Generator: Sketch 51.2 (57519) - http://www.bohemiancoding.com/sketch -->
    <title>4c-logo</title>
    <desc>Created with Sketch.</desc>
    <defs>
        <polygon id="path-1" points="0.000109979633 0.214285714 134.75513 0.214285714 134.75513 99.7252473 0.000109979633 99.7252473"></polygon>
    </defs>
    <g id="Page-1" stroke="none" stroke-width="1" fill="none" fill-rule="evenodd">
        <g id="4c-logo">
            <path d="M105.774975,35.7858516 C105.066981,34.9778846 104.427724,34.0951923 103.844557,33.1938187 C103.550087,32.7391484 103.262765,32.2754121 103.000463,31.801511 C102.970494,31.7473901 102.941074,31.6927198 102.91138,31.6383242 C102.911655,31.6385989 102.874812,31.5592033 102.867113,31.5567308 C102.851166,31.5517857 102.780229,31.601511 102.762357,31.6108516 C102.64303,31.6726648 102.524252,31.7347527 102.405199,31.7971154 C102.165443,31.9232143 101.926237,32.0506868 101.687856,32.1798077 C99.7401171,33.234478 97.8358198,34.3833791 96.0120825,35.6402473 C94.1776222,36.9048077 92.3934776,38.2416209 90.7028157,39.693544 C90.2769196,40.0592033 89.8548727,40.4298077 89.4394246,40.8072802 C89.3354939,40.9017857 89.232113,40.9968407 89.1290071,41.0921703 C89.1083859,41.1114011 89.0668686,41.1342033 89.0564206,41.159478 C89.0410234,41.1957418 89.053946,41.2004121 89.0784165,41.2388736 C89.1185591,41.3012363 89.1589766,41.3633242 89.1993941,41.4256868 C89.3533656,41.6622253 89.5084369,41.8982143 89.664333,42.1333791 C90.2769196,43.0561813 90.9123269,43.9668956 91.5669807,44.8605769 C92.8760132,46.6468407 94.249109,48.3899725 95.7046894,50.0597527 C95.8891802,50.2715659 96.0728462,50.4836538 96.2587118,50.6943681 C96.7236507,49.6166209 97.1514715,48.5267857 97.6582026,47.4668956 C98.1509114,46.4347527 98.6862373,45.4229396 99.2606059,44.4336538 C100.417592,42.4399725 101.731573,40.5372253 103.178355,38.7421703 C104.001553,37.7207418 104.868192,36.7342033 105.774975,35.7858516 C105.757378,35.765522 101.822856,39.9193681 105.774975,35.7858516" id="Fill-1" fill="#86C28E"></path>
            <path d="M97.8449481,25.2090659 C94.7954878,25.8239011 91.8106405,26.8247253 89.0124837,28.182967 C87.6209664,28.8582418 86.278665,29.6293956 84.9976772,30.4961538 C84.6762617,30.7137363 84.3586955,30.9370879 84.0447037,31.1653846 C83.9745916,31.2162088 83.8632373,31.2703297 83.8096222,31.3376374 C83.762331,31.3964286 83.7760784,31.3494505 83.7898259,31.4131868 C83.7972495,31.4475275 83.8203452,31.4848901 83.8340927,31.517033 C83.9176772,31.7112637 84.0018116,31.9046703 84.0875957,32.0978022 C84.3958136,32.7942308 84.718054,33.4851648 85.052942,34.1692308 C85.8291232,35.7535714 86.6770662,37.3035714 87.5780743,38.8203297 C89.2492149,37.3208791 91.0127383,35.9464286 92.8526976,34.6601648 C94.675335,33.385989 96.6076772,32.2505495 98.5831864,31.2304945 C99.681333,30.6634615 100.800651,30.1376374 101.936465,29.65 C101.530641,28.7217033 101.170732,27.7725275 100.88506,26.8002747 C100.746486,26.3291209 100.623584,25.8535714 100.513054,25.3752747 C100.486659,25.2634615 100.461638,25.1513736 100.436893,25.0392857 C100.42562,24.9876374 100.414347,24.9357143 100.403349,24.8837912 C100.39895,24.8637363 100.3973,24.8365385 100.389052,24.8175824 C100.361557,24.756044 100.354683,24.7769231 100.280997,24.7876374 C100.033543,24.8233516 99.7860886,24.8607143 99.5391843,24.9013736 C98.9725143,24.9942308 98.4091436,25.1024725 97.8449481,25.2090659 C97.5765978,25.2631868 98.3821986,25.1074176 97.8449481,25.2090659" id="Fill-3" fill="#86C28E"></path>
            <path d="M110.558401,24.5505495 C108.291996,24.3681319 106.03054,24.3002747 103.758635,24.4346154 C103.090509,24.4741758 102.423208,24.5291209 101.757831,24.6002747 C102.149633,25.7901099 102.628045,26.9524725 103.181792,28.0760989 C103.24723,28.2087912 103.313493,28.3406593 103.380855,28.4722527 C103.418248,28.5458791 103.455916,28.6195055 103.494409,28.6928571 C103.528503,28.7582418 103.557923,28.8623626 103.610163,28.9134615 C103.659379,28.9618132 103.633259,28.9576923 103.703921,28.9307692 C103.742963,28.9156593 103.782006,28.9008242 103.821049,28.885989 C103.891161,28.8593407 103.961548,28.832967 104.03166,28.8065934 C104.194155,28.7456044 104.35665,28.6857143 104.519695,28.6263736 C105.100662,28.4156593 105.685754,28.2159341 106.274695,28.028022 C108.547699,27.3021978 110.886415,26.7505495 113.257576,26.4692308 C114.484399,26.3239011 115.723045,26.2505495 116.958391,26.296978 C116.964165,26.1706044 116.955916,26.043956 116.933646,25.9195055 C116.916599,25.8236264 116.896527,25.6409341 116.816517,25.5914835 C116.756578,25.5546703 116.641925,25.5502747 116.573462,25.5343407 C116.479155,25.5126374 116.384572,25.4912088 116.290265,25.4700549 C115.850621,25.3725275 115.410153,25.2815934 114.96831,25.1942308 C114.081324,25.0184066 113.187739,24.8741758 112.291405,24.7532967 C111.714837,24.6758242 111.137169,24.6082418 110.558401,24.5505495 C110.177047,24.5197802 112.080244,24.7021978 110.558401,24.5505495" id="Fill-5" fill="#86C28E"></path>
            <path d="M112.588295,27.6190934 C110.48576,28.223489 108.421717,28.9820055 106.420088,29.8641484 C105.819874,30.1287088 105.222959,30.4001374 104.630994,30.6820055 C105.021147,31.3034341 105.438794,31.918544 105.886411,32.5001374 C106.344202,33.0951923 106.801717,33.7001374 107.310923,34.2528846 C108.522623,33.0990385 109.796737,32.0105769 111.128866,30.9973901 C112.430749,30.0070055 113.786798,29.0866758 115.192613,28.2501374 C115.386727,28.134478 115.581666,28.0207418 115.77743,27.9083791 C115.958346,27.8048077 116.146686,27.7105769 116.309731,27.5789835 C116.596778,27.3473901 116.80354,27.026511 116.898397,26.670467 C115.441167,26.8842033 114.002908,27.2105769 112.588295,27.6190934 C111.325729,27.9820055 113.850862,27.254533 112.588295,27.6190934" id="Fill-7" fill="#86C28E"></path>
            <path d="M94.9851202,53.3434615 C93.8616782,52.0953846 92.7797536,50.8096703 91.7607923,49.4747802 C90.72011,48.1115934 89.7247943,46.7165385 88.7927169,45.276978 C88.2771874,44.4808242 87.7806293,43.6725824 87.3033177,42.8530769 C85.3882974,44.7876923 83.6401711,46.8778022 82.0839593,49.1102198 C81.1532566,50.4448352 80.3047637,51.8420879 79.5519532,53.2843956 C78.8296619,54.6679121 78.1615356,56.1025275 77.6443564,57.5764286 C77.6116375,57.6687363 77.5791935,57.761044 77.5464745,57.8533516 C77.5228289,57.9209341 77.51678,57.9228571 77.5393259,57.986044 C77.5544481,58.026978 77.592391,58.0712088 77.6154868,58.1082967 C77.7262912,58.2846703 77.8379206,58.4604945 77.9506497,58.6357692 C78.1692342,58.9742308 78.391943,59.3107692 78.6190509,59.644011 C79.0746415,60.3137912 79.5453544,60.9750549 80.0372383,61.6192857 C81.0072587,62.8896154 82.0350183,64.1143407 83.1293157,65.2794505 C83.3984908,65.5662637 83.6715153,65.8492308 83.9481141,66.1283516 C83.9626864,66.1431868 84.0267495,66.2258791 84.045721,66.226978 C84.0652424,66.2283516 84.1394786,66.1547253 84.1559756,66.1418132 C84.2296619,66.0849451 84.3030733,66.0278022 84.3764847,65.9703846 C84.526332,65.8530769 84.6750794,65.7346703 84.823002,65.6146154 C85.3750998,65.1681868 85.9150998,64.7066484 86.443002,64.2313736 C87.5183279,63.2621429 88.5416884,62.2349451 89.5078595,61.1566484 C91.4091324,59.0341209 93.0912709,56.712967 94.4962607,54.2338462 C94.6631548,53.9390659 94.8261996,53.6423626 94.9851202,53.3434615 C93.7951405,52.0214835 92.4544888,58.1041758 94.9851202,53.3434615" id="Fill-9" fill="#86C28E"></path>
            <path d="M76.763832,54.0906319 C77.4033635,52.4442033 78.1490255,50.8499725 79.020889,49.3128846 C79.8724063,47.8112363 80.8281293,46.3683791 81.8748605,44.9955769 C82.6229969,44.014533 83.4063269,43.0551923 84.2394226,42.1453022 C84.5363676,41.8211264 84.8360621,41.4996978 85.1412556,41.1829396 C85.3004511,41.0178297 85.4610214,40.8538187 85.6226914,40.6909066 C85.6974776,40.6153571 85.7728136,40.5398077 85.8484246,40.464533 C85.8863676,40.4266209 85.9278849,40.4016209 85.9237607,40.355467 C85.9196365,40.305467 85.8552984,40.2238736 85.8311029,40.1768956 C85.4184043,39.3768956 85.0246772,38.5672802 84.6510214,37.7483242 C83.9391782,36.1884341 83.3001965,34.5900824 82.7615713,32.9617857 C82.6917342,32.7502473 82.6235468,32.5376099 82.5564593,32.3249725 C81.4533635,33.2464011 80.3945346,34.2400824 79.4443106,35.3208516 C78.7836079,36.0725 78.1635978,36.8538187 77.579331,37.6670055 C76.3668055,39.3546429 75.3299725,41.1966758 74.5425183,43.1205769 C74.1350438,44.1153571 73.7732108,45.130467 73.4660927,46.1606868 C73.3192699,46.6538187 73.183445,47.1557418 73.0696161,47.6576648 C73.0421212,47.7799176 73.0146263,47.9021703 72.9871314,48.0246978 C72.9750336,48.0777198 72.9629358,48.1307418 72.951113,48.1840385 C72.9326914,48.264533 72.9552373,48.311511 72.9819073,48.3887088 C73.0679664,48.6417308 73.1559501,48.8936538 73.2464084,49.1450275 C73.9689745,51.1513462 74.8378136,53.1016209 75.8251558,54.9911813 C75.948058,55.2263462 76.0715102,55.4606868 76.2004613,55.6925549 C76.3753289,55.1546429 76.5518462,54.6156319 76.763832,54.0906319 C76.8537403,53.8593132 76.5782413,54.550522 76.763832,54.0906319" id="Fill-11" fill="#86C28E"></path>
            <path d="M82.1884399,67.5223901 C80.5637658,65.8855769 79.1123096,64.0825549 77.7766069,62.2053571 C77.4004766,61.6770604 77.0411181,61.1355769 76.6941324,60.5875 C76.0826456,62.7883242 75.7584807,65.0699176 75.6113829,67.3457418 C75.5742648,67.9193681 75.5580428,68.4932692 75.5415458,69.0679945 C75.5335723,69.3457418 75.540721,69.6237637 75.540721,69.9012363 C75.540721,70.0383242 75.5382464,70.1754121 75.5401711,70.3125 C75.5409959,70.3778846 75.5420957,70.4427198 75.5440204,70.5078297 C75.5445703,70.5298077 75.534947,70.5951923 75.5467699,70.6114011 C75.562167,70.6328297 75.6504257,70.6443681 75.6732464,70.6509615 C75.9305988,70.7207418 76.2030733,70.7320055 76.4656497,70.6820055 C76.7463727,70.6292582 77.0023503,70.4949176 77.2591527,70.3756868 C77.7774318,70.1350275 78.289112,69.8803571 78.7941935,69.6133242 C79.9723503,68.9910714 81.1142138,68.2993132 82.2164847,67.5506868 C82.2071365,67.5410714 82.1977882,67.5317308 82.1884399,67.5223901 C81.9891018,67.3218407 82.1977882,67.5317308 82.1884399,67.5223901" id="Fill-13" fill="#86C28E"></path>
            <path d="M75.2150988,70.0673626 C75.0058625,68.8684615 74.8263208,67.6602198 74.7749053,66.4423626 C74.7251395,65.2670879 74.7193656,64.097033 74.7999257,62.9228571 C74.8859847,61.6687363 75.052054,60.4212088 75.295109,59.1876923 C75.3250784,59.0349451 75.3566976,58.8824725 75.3885916,58.7302747 C75.403164,58.6635165 75.451555,58.551978 75.4411069,58.487967 C75.4306589,58.4253297 75.3616466,58.3481319 75.3300275,58.2918132 C75.1697322,58.0047253 75.0157607,57.7137912 74.8637138,57.422033 C74.5634695,56.8475824 74.2783473,56.2646154 74.0033982,55.6778022 C73.3875122,54.3635165 72.8442128,53.012967 72.3743248,51.6398901 C72.2387749,52.9484066 72.1494165,54.2555495 72.1378686,55.572033 C72.1271456,56.8308242 72.1815855,58.0871429 72.2698442,59.3423626 C72.4493859,61.8948352 72.8879297,64.4280769 73.4342536,66.9250549 C73.50739,67.2588462 73.5797016,67.5923626 73.6627363,67.9236813 C73.7050784,68.0912637 73.7468707,68.2588462 73.7889379,68.4267033 C73.8257811,68.576978 73.8453024,68.7577473 73.9206385,68.8912637 C74.1043045,69.2157143 74.3602821,69.5176374 74.581891,69.8168132 C74.7856283,70.090989 74.9918401,70.3368681 75.2975835,70.5014286 C75.2676141,70.3571978 75.2395692,70.2126923 75.2150988,70.0673626 C75.1510356,69.6995055 75.2417688,70.2236813 75.2150988,70.0673626" id="Fill-15" fill="#86C28E"></path>
            <path d="M100.641428,20.1411538 C100.759381,20.7570879 100.874859,21.3713736 101.018108,21.9820879 C101.091244,22.2933516 101.162731,22.6046154 101.249065,22.9125824 C101.269136,22.9842857 101.289208,23.0557143 101.309279,23.1274176 C101.316153,23.1521429 101.321377,23.1897802 101.332925,23.2112088 C101.361519,23.2656044 101.352996,23.2524176 101.416784,23.2488462 C101.585878,23.2386813 101.754422,23.2293407 101.922965,23.2208242 C103.214401,23.1562637 104.509686,23.1667033 105.800847,23.2337363 C108.287487,23.3631319 110.769727,23.7318132 113.184605,24.3406044 C114.39713,24.6463736 115.593709,25.0065385 116.770766,25.4293407 C116.513963,24.9257692 116.014381,24.6532418 115.555766,24.3573626 C115.060582,24.0378571 114.556051,23.7329121 114.043271,23.4425275 C113.029809,22.8683516 111.982802,22.3518681 110.910226,21.8971978 C108.804391,21.0051648 106.599024,20.3507692 104.347466,19.9504945 C103.092324,19.7271429 101.823159,19.5829121 100.54987,19.5183516 C100.580389,19.726044 100.611183,19.9334615 100.641428,20.1411538 C100.68267,20.3565385 100.609809,19.9257692 100.641428,20.1411538" id="Fill-17" fill="#86C28E"></path>
            <path d="M73.2370051,67.8403022 C72.6615367,66.1290385 72.1542556,64.3982692 71.7588788,62.6359066 C71.3599277,60.8543132 71.0731558,59.0449725 70.910111,57.2265659 C70.7390927,55.3136538 70.721221,53.3988187 70.839999,51.4826099 C70.8999379,50.5183242 71.0272393,49.561456 71.1655387,48.6056868 C71.1817607,48.4933242 71.1971578,48.3812363 71.2183289,48.2694231 C71.2403248,48.1537637 71.2917403,48.0142033 71.2889908,47.8968956 C71.2867912,47.7908516 71.234276,47.6653022 71.2106303,47.561456 C71.1812108,47.4348077 71.1539908,47.3076099 71.1267709,47.1806868 C71.0239399,46.695522 70.9257831,46.2100824 70.839724,45.7216209 C70.5224328,43.9202473 70.3423411,42.0875549 70.3291436,40.2581593 C70.3272189,40.0323352 70.3285937,39.806511 70.332168,39.5809615 C69.6615672,41.375467 69.155111,43.2306868 68.8188483,45.1164011 C68.4850601,46.9867308 68.317891,48.8867308 68.3189908,50.7870055 C68.3200906,52.695522 68.4905591,54.6040385 68.8290214,56.4826099 C69.1674837,58.3658516 69.6744898,60.2185989 70.3437159,62.011456 C71.0211904,63.8279396 71.8655591,65.5820604 72.8636242,67.2441484 C72.9887261,67.4526648 73.1163024,67.6598077 73.2460784,67.8655769 C73.243054,67.8573352 73.2403045,67.8488187 73.2370051,67.8403022 C73.0596629,67.3133791 73.2403045,67.8488187 73.2370051,67.8403022" id="Fill-19" fill="#86C28E"></path>
            <path d="M71.2159644,41.2360989 C71.4109033,42.4948901 71.6627566,43.7418681 71.9712495,44.9778571 C72.519223,43.0863736 73.2486629,41.2553297 74.1656181,39.5119231 C74.9079807,38.1003846 75.7718707,36.7465385 76.7515143,35.4874725 C77.1545896,34.9690659 77.5659134,34.4542308 78.005832,33.9657692 C78.939834,32.9284066 79.9354246,31.9531319 81.002502,31.0517582 C81.191667,30.8924176 81.3824817,30.735 81.574946,30.5795055 C81.6618299,30.5094505 81.7489888,30.4399451 81.8366976,30.3707143 C81.8600682,30.352033 81.9574002,30.2979121 81.9681232,30.2671429 C81.9810458,30.2303297 81.9224817,30.0877473 81.9131334,30.0503846 C81.7973798,29.5885714 81.6901497,29.1245604 81.5925428,28.6586264 C81.4039277,27.7564286 81.2527057,26.8454396 81.1498747,25.9292308 C81.1278788,25.7341758 81.1080825,25.5385714 81.0910356,25.342967 C78.9588055,26.9072527 77.0303126,28.745989 75.3616466,30.7965385 C73.7897627,32.7278571 72.4518605,34.8473626 71.3836833,37.095989 C71.2363106,37.4061538 71.0941619,37.7185165 70.9569623,38.0333516 C70.9214939,38.1146703 70.8868503,38.1808791 70.8843758,38.2685165 C70.8824511,38.345989 70.8956487,38.4273077 70.9014226,38.5047802 C70.9140703,38.6687912 70.9278177,38.8330769 70.942665,38.9968132 C71.0108523,39.7457143 71.1035102,40.4924176 71.2159644,41.2360989 C71.2412597,41.4001099 71.0446711,40.1017582 71.2159644,41.2360989" id="Fill-21" fill="#86C28E"></path>
            <path d="M82.5968218,28.3148901 C82.7364959,28.7044505 82.8728707,29.0948352 83.0172189,29.4827473 C84.9624837,28.1066484 87.0589705,26.9566484 89.2544389,26.0313736 C91.4793269,25.0931868 93.7869745,24.4203846 96.1476874,23.9228571 C97.4591945,23.6462088 98.7973717,23.4670879 100.13115,23.344011 C100.003848,22.4305495 99.9315367,21.519011 99.9015672,20.5975824 C99.8944185,20.3714835 99.8875448,20.1462088 99.891944,19.9201099 C99.8944185,19.8052747 99.897443,19.6904396 99.9004674,19.5756044 C99.9007424,19.5648901 99.9059664,19.5335714 99.9015672,19.5228571 C99.8823208,19.473956 99.9092658,19.5041758 99.8592251,19.4912637 C99.8078096,19.4778022 99.7393473,19.487967 99.686557,19.4868681 C99.254887,19.4772527 98.822942,19.4767033 98.3909969,19.4854945 C96.6838381,19.5201099 94.9799786,19.6984066 93.3027892,20.019011 C91.6151517,20.3415385 89.9547342,20.8082967 88.3460071,21.4126923 C86.7139094,22.0258791 85.1348768,22.7810989 83.6333798,23.6665385 C83.2542251,23.8898901 82.8802943,24.1217582 82.5110377,24.3613187 C82.3226976,24.4838462 82.1354572,24.6085714 81.9495916,24.7352198 C81.8627077,24.7945604 81.7760988,24.8541758 81.6900397,24.9143407 C81.6224022,24.9615934 81.6141538,24.9585714 81.6328503,25.0376923 C81.6443982,25.086044 81.656221,25.1341209 81.6680438,25.1824725 C81.8684817,26.001978 82.1024633,26.8132418 82.3622902,27.615989 C82.4384511,27.8495055 82.5165367,28.0827473 82.5968218,28.3148901 C82.7117505,28.6354945 82.158278,27.0459341 82.5968218,28.3148901" id="Fill-23" fill="#86C28E"></path>
            <path d="M119.938894,72.1473901 C109.389098,82.9039835 93.0450244,84.1759615 81.032499,75.9938187 C79.9596477,75.2630495 80.0421324,73.6688187 81.1743727,73.0322802 C83.0786701,71.9611264 84.9395255,70.7119505 86.740442,69.2913462 C92.8938024,64.4377747 97.8250143,57.9127747 100.62812,50.9190934 C103.070218,44.8267857 107.386919,39.126511 112.784444,34.8677198 C115.220218,32.9476648 117.769546,31.3913462 120.378813,30.2212912 C121.126674,29.8858516 122.01311,30.1127747 122.505269,30.7649725 C131.834841,43.1309066 130.988823,60.8809066 119.938894,72.1473901" id="Fill-25" fill="#236055"></path>
            <g id="Group-29" transform="translate(0.000000, 0.060440)">
                <mask id="mask-2" fill="white">
                    <use xlink:href="#path-1"></use>
                </mask>
                <g id="Clip-28"></g>
                <path d="M34.8279104,57.2472253 L18.5396517,57.2472253 L34.8279104,31.4455769 L34.8279104,57.2472253 Z M134.068308,81.8821154 L129.603959,76.0488736 C128.917136,75.5337637 128.230314,75.3620604 127.543491,75.3620604 C127.200079,75.3620604 126.684825,75.5337637 126.513257,75.705467 C117.412442,85.4848626 106.079591,87.7153571 98.0092851,87.7153571 C78.2627169,87.7153571 61.7784196,73.4749725 61.7784196,50.4845879 C61.7784196,29.2095879 76.5453849,12.7392582 98.0092851,12.7392582 C107.453511,12.7392582 114.665151,15.8271703 121.705497,21.3172802 C121.877065,21.4889835 122.392045,21.8321154 122.907299,21.8321154 C123.594122,21.8321154 123.937534,21.6604121 124.624356,20.9741484 C127.715334,17.8862363 129.603959,16.1703022 130.634468,15.3123352 C131.149448,14.7977747 131.492859,14.4546429 131.492859,13.9398077 C131.492859,13.7683791 131.321291,13.4252473 131.149448,13.0821154 C122.392045,5.36151099 110.544214,0.214258242 98.1811283,0.214258242 C75.2088574,0.214258242 55.6016884,15.8095879 49.7920143,36.9678297 L49.7920143,13.7148077 C49.6594888,12.9208516 48.9974114,12.3917308 48.2028086,12.3917308 L29.9280428,12.3917308 C29.1334399,12.3917308 28.7361385,12.7884341 28.339112,13.7148077 L1.85409165,55.9244231 C1.19173931,56.850522 0.000109979633,58.7029945 0.000109979633,59.6290934 L0.000109979633,69.2881593 C0.000109979633,70.2142582 0.662187373,70.8757967 1.58904073,70.8757967 L34.8279104,70.8757967 L34.8279104,85.9604121 C34.8279104,86.886511 35.4899878,87.5480495 36.4168411,87.5480495 L48.2028086,87.5480495 C49.1299369,87.5480495 49.7920143,86.886511 49.7920143,85.9604121 L49.7920143,70.8757967 L52.7136232,70.8757967 C60.7272892,87.900522 78.1783075,99.7252473 98.1811283,99.7252473 C112.776251,99.7252473 125.826434,94.0637088 134.583287,83.9406319 C134.75513,83.5975 134.75513,83.2543681 134.75513,83.0832143 C134.75513,82.5683791 134.583287,82.2252473 134.068308,81.8821154 Z" id="Fill-27" fill="#F05E2D" mask="url(#mask-2)"></path>
            </g>
        </g>
    </g>
</svg>